<?xml version="1.0" standalone="no"?>
<!DOCTYPE svg PUBLIC "-//W3C//DTD SVG 20010904//EN"
 "http://www.w3.org/TR/2001/REC-SVG-20010904/DTD/svg10.dtd">
<svg version="1.0" xmlns="http://www.w3.org/2000/svg"
 width="512.000000pt" height="512.000000pt" viewBox="0 0 512.000000 512.000000"
 preserveAspectRatio="xMidYMid meet">
<metadata>
Created by potrace 1.11, written by Peter Selinger 2001-2013
</metadata>
<g transform="translate(0.000000,512.000000) scale(0.100000,-0.100000)"
fill="#000000" stroke="none">
<path d="M1540 2410 l0 -460 240 0 240 0 0 55 0 55 -190 0 -190 0 0 405 0 405
-50 0 -50 0 0 -460z"/>
<path d="M2245 2621 c-54 -24 -108 -86 -136 -157 -20 -50 -23 -77 -23 -179 0
-100 3 -129 22 -176 94 -236 350 -238 443 -3 20 50 23 77 23 179 0 100 -3 129
-22 176 -58 146 -188 214 -307 160z m158 -106 c15 -9 39 -42 54 -73 25 -51 28
-68 28 -158 0 -92 -3 -105 -30 -159 -36 -69 -80 -99 -136 -92 -54 7 -85 33
-116 95 -25 51 -28 68 -28 158 0 92 3 105 30 159 47 91 125 119 198 70z"/>
<path d="M2802 2619 c-83 -42 -130 -138 -139 -285 -13 -217 75 -386 211 -401
60 -7 109 11 147 55 l32 36 -6 -70 c-12 -142 -49 -188 -153 -189 -70 0 -97 16
-121 73 -12 28 -18 32 -53 32 -35 0 -40 -3 -40 -23 0 -41 49 -125 86 -148 43
-26 142 -36 202 -20 51 14 106 61 131 110 36 70 41 134 41 486 l0 345 -45 0
-45 0 0 -47 0 -46 -31 42 c-51 71 -135 90 -217 50z m152 -94 c18 -9 42 -32 53
-53 39 -68 54 -209 32 -302 -30 -131 -147 -181 -226 -96 -43 47 -58 102 -58
226 0 92 3 111 25 155 38 76 104 103 174 70z"/>
<path d="M3405 2621 c-54 -24 -108 -86 -136 -157 -20 -50 -23 -77 -23 -179 0
-100 3 -129 22 -176 94 -236 350 -238 443 -3 20 50 23 77 23 179 0 100 -3 129
-22 176 -58 146 -188 214 -307 160z m158 -106 c15 -9 39 -42 54 -73 25 -51 28
-68 28 -158 0 -92 -3 -105 -30 -159 -36 -69 -80 -99 -136 -92 -54 7 -85 33
-116 95 -25 51 -28 68 -28 158 0 92 3 105 30 159 47 91 125 119 198 70z"/>
</g>
</svg>
